<svg width="272" height="24" viewBox="0 0 272 24" fill="none" xmlns="http://www.w3.org/2000/svg">
<path d="M14.625 9.375H9.375V14.625H14.625V9.375Z" stroke="#FF6636" stroke-width="1.5" stroke-linecap="round" stroke-linejoin="round"/>
<path d="M18.75 4.5H5.25C4.83579 4.5 4.5 4.83579 4.5 5.25V18.75C4.5 19.1642 4.83579 19.5 5.25 19.5H18.75C19.1642 19.5 19.5 19.1642 19.5 18.75V5.25C19.5 4.83579 19.1642 4.5 18.75 4.5Z" stroke="#FF6636" stroke-width="1.5" stroke-linecap="round" stroke-linejoin="round"/>
<path d="M19.5 9.75H21.75" stroke="#FF6636" stroke-width="1.5" stroke-linecap="round" stroke-linejoin="round"/>
<path d="M19.5 14.25H21.75" stroke="#FF6636" stroke-width="1.5" stroke-linecap="round" stroke-linejoin="round"/>
<path d="M2.25 9.75H4.5" stroke="#FF6636" stroke-width="1.5" stroke-linecap="round" stroke-linejoin="round"/>
<path d="M2.25 14.25H4.5" stroke="#FF6636" stroke-width="1.5" stroke-linecap="round" stroke-linejoin="round"/>
<path d="M14.25 19.5V21.75" stroke="#FF6636" stroke-width="1.5" stroke-linecap="round" stroke-linejoin="round"/>
<path d="M9.75 19.5V21.75" stroke="#FF6636" stroke-width="1.5" stroke-linecap="round" stroke-linejoin="round"/>
<path d="M14.25 2.25V4.5" stroke="#FF6636" stroke-width="1.5" stroke-linecap="round" stroke-linejoin="round"/>
<path d="M9.75 2.25V4.5" stroke="#FF6636" stroke-width="1.5" stroke-linecap="round" stroke-linejoin="round"/>
<path d="M40.4148 17H37.1186V6.81818H40.5192C41.5168 6.81818 42.3736 7.02202 43.0895 7.42969C43.8054 7.83404 44.3539 8.41572 44.7351 9.17472C45.1196 9.9304 45.3118 10.8369 45.3118 11.8942C45.3118 12.9548 45.1179 13.8662 44.7301 14.6286C44.3456 15.3909 43.7888 15.9775 43.0597 16.3885C42.3305 16.7962 41.4489 17 40.4148 17ZM38.6548 15.6577H40.3303C41.1058 15.6577 41.7505 15.5118 42.2642 15.2202C42.7779 14.9252 43.1624 14.4993 43.4176 13.9425C43.6728 13.3823 43.8004 12.6996 43.8004 11.8942C43.8004 11.0954 43.6728 10.4176 43.4176 9.8608C43.1657 9.30398 42.7895 8.88139 42.2891 8.59304C41.7886 8.30469 41.1671 8.16051 40.4247 8.16051H38.6548V15.6577ZM50.254 17.1541C49.5016 17.1541 48.8537 16.9934 48.3101 16.6719C47.7699 16.3471 47.3522 15.8913 47.0573 15.3047C46.7656 14.7147 46.6198 14.0237 46.6198 13.2315C46.6198 12.4493 46.7656 11.7599 47.0573 11.1634C47.3522 10.5668 47.7632 10.1011 48.2902 9.76633C48.8205 9.43158 49.4403 9.2642 50.1496 9.2642C50.5805 9.2642 50.9981 9.33546 51.4024 9.47798C51.8068 9.6205 52.1697 9.84422 52.4912 10.1491C52.8127 10.4541 53.0663 10.8501 53.2519 11.3374C53.4375 11.8213 53.5303 12.4096 53.5303 13.1023V13.6293H47.46V12.5156H52.0736C52.0736 12.1245 51.9941 11.7782 51.835 11.4766C51.6759 11.1716 51.4522 10.9313 51.1638 10.7557C50.8788 10.58 50.544 10.4922 50.1595 10.4922C49.7419 10.4922 49.3773 10.5949 49.0658 10.8004C48.7575 11.0026 48.5189 11.2678 48.3499 11.5959C48.1842 11.9207 48.1013 12.2737 48.1013 12.6548V13.5249C48.1013 14.0353 48.1908 14.4695 48.3698 14.8274C48.5521 15.1854 48.8056 15.4588 49.1304 15.6477C49.4552 15.8333 49.8347 15.9261 50.2689 15.9261C50.5506 15.9261 50.8075 15.8864 51.0395 15.8068C51.2715 15.724 51.472 15.6013 51.6411 15.4389C51.8101 15.2765 51.9394 15.076 52.0289 14.8374L53.4358 15.0909C53.3231 15.5052 53.1209 15.8681 52.8293 16.1797C52.5409 16.4879 52.178 16.7282 51.7405 16.9006C51.3063 17.0696 50.8108 17.1541 50.254 17.1541ZM61.3535 9.36364L58.5843 17H56.9934L54.2193 9.36364H55.8152L57.7491 15.2401H57.8287L59.7576 9.36364H61.3535ZM65.642 17.1541C64.8896 17.1541 64.2416 16.9934 63.6981 16.6719C63.1578 16.3471 62.7402 15.8913 62.4452 15.3047C62.1536 14.7147 62.0077 14.0237 62.0077 13.2315C62.0077 12.4493 62.1536 11.7599 62.4452 11.1634C62.7402 10.5668 63.1512 10.1011 63.6782 9.76633C64.2085 9.43158 64.8283 9.2642 65.5376 9.2642C65.9684 9.2642 66.386 9.33546 66.7904 9.47798C67.1948 9.6205 67.5577 9.84422 67.8792 10.1491C68.2007 10.4541 68.4542 10.8501 68.6398 11.3374C68.8254 11.8213 68.9182 12.4096 68.9182 13.1023V13.6293H62.8479V12.5156H67.4616C67.4616 12.1245 67.382 11.7782 67.2229 11.4766C67.0638 11.1716 66.8401 10.9313 66.5518 10.7557C66.2667 10.58 65.932 10.4922 65.5475 10.4922C65.1299 10.4922 64.7653 10.5949 64.4538 10.8004C64.1455 11.0026 63.9069 11.2678 63.7378 11.5959C63.5721 11.9207 63.4893 12.2737 63.4893 12.6548V13.5249C63.4893 14.0353 63.5788 14.4695 63.7577 14.8274C63.94 15.1854 64.1936 15.4588 64.5184 15.6477C64.8432 15.8333 65.2227 15.9261 65.6569 15.9261C65.9386 15.9261 66.1955 15.8864 66.4275 15.8068C66.6595 15.724 66.86 15.6013 67.029 15.4389C67.1981 15.2765 67.3273 15.076 67.4168 14.8374L68.8238 15.0909C68.7111 15.5052 68.5089 15.8681 68.2173 16.1797C67.9289 16.4879 67.566 16.7282 67.1285 16.9006C66.6943 17.0696 66.1988 17.1541 65.642 17.1541ZM71.9141 6.81818V17H70.4276V6.81818H71.9141ZM76.9905 17.1541C76.2746 17.1541 75.6498 16.9901 75.1162 16.6619C74.5826 16.3338 74.1683 15.8748 73.8733 15.2848C73.5783 14.6948 73.4309 14.0054 73.4309 13.2166C73.4309 12.4245 73.5783 11.7318 73.8733 11.1385C74.1683 10.5452 74.5826 10.0845 75.1162 9.75639C75.6498 9.42827 76.2746 9.2642 76.9905 9.2642C77.7064 9.2642 78.3312 9.42827 78.8648 9.75639C79.3984 10.0845 79.8127 10.5452 80.1077 11.1385C80.4027 11.7318 80.5502 12.4245 80.5502 13.2166C80.5502 14.0054 80.4027 14.6948 80.1077 15.2848C79.8127 15.8748 79.3984 16.3338 78.8648 16.6619C78.3312 16.9901 77.7064 17.1541 76.9905 17.1541ZM76.9955 15.9062C77.4595 15.9062 77.844 15.7836 78.1489 15.5384C78.4538 15.2931 78.6792 14.9666 78.825 14.5589C78.9742 14.1513 79.0488 13.7022 79.0488 13.2116C79.0488 12.7244 78.9742 12.277 78.825 11.8693C78.6792 11.4583 78.4538 11.1286 78.1489 10.88C77.844 10.6314 77.4595 10.5071 76.9955 10.5071C76.5282 10.5071 76.1404 10.6314 75.8321 10.88C75.5272 11.1286 75.3002 11.4583 75.151 11.8693C75.0052 12.277 74.9323 12.7244 74.9323 13.2116C74.9323 13.7022 75.0052 14.1513 75.151 14.5589C75.3002 14.9666 75.5272 15.2931 75.8321 15.5384C76.1404 15.7836 76.5282 15.9062 76.9955 15.9062ZM82.0694 19.8636V9.36364H83.5212V10.6016H83.6454C83.7316 10.4425 83.8559 10.2585 84.0183 10.0497C84.1807 9.84091 84.4061 9.65862 84.6944 9.50284C84.9828 9.34375 85.364 9.2642 85.8379 9.2642C86.4544 9.2642 87.0046 9.41998 87.4885 9.73153C87.9724 10.0431 88.3519 10.4922 88.627 11.0788C88.9054 11.6655 89.0446 12.3714 89.0446 13.1967C89.0446 14.022 88.907 14.7296 88.6319 15.3196C88.3569 15.9062 87.979 16.3587 87.4984 16.6768C87.0178 16.9917 86.4693 17.1491 85.8528 17.1491C85.3888 17.1491 85.0093 17.0713 84.7143 16.9155C84.4227 16.7597 84.194 16.5774 84.0283 16.3686C83.8625 16.1598 83.7349 15.9742 83.6454 15.8118H83.556V19.8636H82.0694ZM83.5261 13.1818C83.5261 13.7187 83.604 14.1894 83.7598 14.5938C83.9156 14.9981 84.1409 15.3146 84.4359 15.5433C84.7309 15.7687 85.0922 15.8814 85.5197 15.8814C85.9639 15.8814 86.3351 15.7637 86.6334 15.5284C86.9317 15.2898 87.157 14.9666 87.3095 14.5589C87.4653 14.1513 87.5432 13.6922 87.5432 13.1818C87.5432 12.678 87.4669 12.2256 87.3145 11.8246C87.1653 11.4235 86.9399 11.107 86.6383 10.875C86.34 10.643 85.9672 10.527 85.5197 10.527C85.0889 10.527 84.7243 10.638 84.426 10.8601C84.131 11.0821 83.9073 11.392 83.7548 11.7898C83.6024 12.1875 83.5261 12.6515 83.5261 13.1818ZM90.5701 17V9.36364H91.9969V10.6065H92.0914C92.2505 10.1856 92.5106 9.85748 92.8719 9.62216C93.2332 9.38352 93.6657 9.2642 94.1695 9.2642C94.6799 9.2642 95.1075 9.38352 95.4522 9.62216C95.8002 9.8608 96.0571 10.1889 96.2228 10.6065H96.3023C96.4846 10.1989 96.7746 9.87405 97.1723 9.6321C97.5701 9.38684 98.044 9.2642 98.5942 9.2642C99.2869 9.2642 99.852 9.4813 100.29 9.91548C100.73 10.3497 100.951 11.0043 100.951 11.8793V17H99.4642V12.0185C99.4642 11.5014 99.3234 11.1269 99.0417 10.8949C98.7599 10.6629 98.4235 10.5469 98.0324 10.5469C97.5485 10.5469 97.1723 10.696 96.9039 10.9943C96.6354 11.2893 96.5012 11.6688 96.5012 12.1328V17H95.0196V11.924C95.0196 11.5097 94.8904 11.1766 94.6319 10.9247C94.3733 10.6728 94.0369 10.5469 93.6226 10.5469C93.3409 10.5469 93.0807 10.6214 92.8421 10.7706C92.6068 10.9164 92.4162 11.1203 92.2704 11.3821C92.1278 11.6439 92.0566 11.9472 92.0566 12.2919V17H90.5701ZM106.094 17.1541C105.342 17.1541 104.694 16.9934 104.15 16.6719C103.61 16.3471 103.193 15.8913 102.898 15.3047C102.606 14.7147 102.46 14.0237 102.46 13.2315C102.46 12.4493 102.606 11.7599 102.898 11.1634C103.193 10.5668 103.604 10.1011 104.131 9.76633C104.661 9.43158 105.281 9.2642 105.99 9.2642C106.421 9.2642 106.838 9.33546 107.243 9.47798C107.647 9.6205 108.01 9.84422 108.332 10.1491C108.653 10.4541 108.907 10.8501 109.092 11.3374C109.278 11.8213 109.371 12.4096 109.371 13.1023V13.6293H103.3V12.5156H107.914C107.914 12.1245 107.834 11.7782 107.675 11.4766C107.516 11.1716 107.292 10.9313 107.004 10.7557C106.719 10.58 106.384 10.4922 106 10.4922C105.582 10.4922 105.218 10.5949 104.906 10.8004C104.598 11.0026 104.359 11.2678 104.19 11.5959C104.024 11.9207 103.942 12.2737 103.942 12.6548V13.5249C103.942 14.0353 104.031 14.4695 104.21 14.8274C104.392 15.1854 104.646 15.4588 104.971 15.6477C105.296 15.8333 105.675 15.9261 106.109 15.9261C106.391 15.9261 106.648 15.8864 106.88 15.8068C107.112 15.724 107.312 15.6013 107.481 15.4389C107.65 15.2765 107.78 15.076 107.869 14.8374L109.276 15.0909C109.163 15.5052 108.961 15.8681 108.67 16.1797C108.381 16.4879 108.018 16.7282 107.581 16.9006C107.147 17.0696 106.651 17.1541 106.094 17.1541ZM112.366 12.4659V17H110.88V9.36364H112.307V10.6065H112.401C112.577 10.2022 112.852 9.87737 113.227 9.6321C113.604 9.38684 114.08 9.2642 114.653 9.2642C115.174 9.2642 115.629 9.37358 116.021 9.59233C116.412 9.80777 116.715 10.1293 116.93 10.5568C117.146 10.9844 117.253 11.513 117.253 12.1428V17H115.767V12.3217C115.767 11.7682 115.623 11.3357 115.334 11.0241C115.046 10.7093 114.65 10.5518 114.146 10.5518C113.802 10.5518 113.495 10.6264 113.227 10.7756C112.961 10.9247 112.751 11.1435 112.595 11.4318C112.443 11.7169 112.366 12.0616 112.366 12.4659ZM122.672 9.36364V10.5568H118.501V9.36364H122.672ZM119.619 7.53409H121.106V14.7578C121.106 15.0462 121.149 15.2633 121.235 15.4091C121.321 15.5516 121.432 15.6494 121.568 15.7024C121.707 15.7521 121.858 15.777 122.02 15.777C122.14 15.777 122.244 15.7687 122.334 15.7521C122.423 15.7356 122.493 15.7223 122.542 15.7124L122.811 16.9403C122.725 16.9735 122.602 17.0066 122.443 17.0398C122.284 17.0762 122.085 17.0961 121.846 17.0994C121.455 17.1061 121.091 17.0365 120.753 16.8906C120.415 16.7448 120.141 16.5194 119.932 16.2145C119.724 15.9096 119.619 15.5268 119.619 15.0661V7.53409Z" fill="#1D2026"/>
<path d="M269 14L264 9L259 14" stroke="#FF6636" stroke-width="1.5" stroke-linecap="round" stroke-linejoin="round"/>
</svg>
