<svg width="100" height="100" viewBox="0 0 100 100" fill="none" xmlns="http://www.w3.org/2000/svg">
<g clip-path="url(#clip0_2181_63685)">
<path fill-rule="evenodd" clip-rule="evenodd" d="M28.4069 39.5026C29.7818 39.873 30.8625 40.9535 31.2278 42.3235C31.8925 44.8095 31.8925 49.9998 31.8925 49.9998C31.8925 49.9998 31.8925 55.1901 31.2278 57.6761C30.8574 59.051 29.7769 60.1317 28.4069 60.497C25.9209 61.1617 15.9463 61.1617 15.9463 61.1617C15.9463 61.1617 5.97672 61.1617 3.48558 60.497C2.11067 60.1266 1.02997 59.046 0.664706 57.6761C0 55.1901 0 49.9997 0 49.9997C0 49.9997 0 44.8095 0.664706 42.3235C1.03508 40.9486 2.11578 39.8679 3.48558 39.5026C5.97672 38.8379 15.9463 38.8379 15.9463 38.8379C15.9463 38.8379 25.9209 38.8379 28.4069 39.5026ZM21.0452 49.9998L12.7601 54.7842V45.2155L21.0452 49.9998Z" fill="#FF0000"/>
<path fill-rule="evenodd" clip-rule="evenodd" d="M46.2914 59.1466C45.6623 58.7205 45.2107 58.0609 44.9469 57.163C44.683 56.2649 44.546 55.0726 44.546 53.5809V51.5515C44.546 50.0447 44.6982 48.8373 45.0027 47.9238C45.3071 47.0107 45.7841 46.3461 46.4283 45.93C47.0727 45.514 47.92 45.3009 48.9702 45.3009C50.0053 45.3009 50.8323 45.514 51.4562 45.9402C52.0803 46.3663 52.5369 47.031 52.8261 47.9341C53.1153 48.8373 53.2575 50.0447 53.2575 51.5464V53.5759C53.2575 55.0675 53.1153 56.2649 52.8362 57.168C52.5572 58.071 52.1007 58.7357 51.4664 59.1517C50.8373 59.5677 49.9798 59.781 48.8991 59.781C47.7931 59.7859 46.9205 59.5728 46.2914 59.1466V59.1466ZM49.8276 56.9549C50.0001 56.4983 50.0915 55.7524 50.0915 54.7226V50.3644C50.0915 49.3597 50.0053 48.6292 49.8276 48.1625C49.6552 47.7007 49.3457 47.4673 48.9042 47.4673C48.4781 47.4673 48.1787 47.7007 48.0012 48.1625C47.8286 48.6241 47.7374 49.3597 47.7374 50.3644V54.7226C47.7374 55.7575 47.8185 56.5034 47.986 56.9549C48.1534 57.4115 48.4578 57.6398 48.8993 57.6398C49.3457 57.6398 49.6501 57.4115 49.8276 56.9549V56.9549ZM94.7287 53.6164V54.3218C94.7287 55.2197 94.7541 55.8894 94.81 56.3409C94.8606 56.7875 94.9723 57.1172 95.1397 57.3203C95.3071 57.5231 95.5658 57.6297 95.9158 57.6297C96.3878 57.6297 96.7124 57.4471 96.885 57.0817C97.0575 56.7164 97.1537 56.1076 97.1691 55.2553L99.8834 55.4126C99.8987 55.5343 99.9037 55.7017 99.9037 55.9147C99.9037 57.2086 99.5485 58.1725 98.8433 58.8118C98.1381 59.451 97.1387 59.7707 95.8449 59.7707C94.2924 59.7707 93.2067 59.2836 92.5826 58.3095C91.9585 57.3354 91.6491 55.8336 91.6491 53.7941V51.3537C91.6491 49.2533 91.9738 47.726 92.618 46.7571C93.2624 45.7931 94.3684 45.311 95.9363 45.311C97.0169 45.311 97.8439 45.509 98.4222 45.9047C99.0006 46.3004 99.4065 46.9142 99.645 47.7514C99.8784 48.5885 100 49.7454 100 51.2167V53.6115H94.7287V53.6164ZM95.1295 47.7311C94.9721 47.9291 94.8657 48.2537 94.8098 48.7002C94.754 49.1467 94.7287 49.8317 94.7287 50.7397V51.7444H97.0321V50.7397C97.0321 49.8417 97.0017 49.1619 96.9407 48.7002C96.8799 48.2385 96.7683 47.9088 96.611 47.721C96.4536 47.5333 96.2051 47.4369 95.8702 47.4369C95.5354 47.4318 95.2868 47.5333 95.1295 47.7311ZM38.6303 53.3527L35.0485 40.4202H38.1736L39.4269 46.2802C39.7465 47.7261 39.9799 48.9539 40.1321 49.9737H40.2233C40.3299 49.243 40.5633 48.0203 40.9287 46.3004L42.2274 40.415H45.3527L41.7303 53.3527V59.5576H38.6303V53.3527ZM63.4197 45.575V59.5525H60.959L60.685 57.8428H60.6191C59.9494 59.1365 58.9448 59.7809 57.6104 59.7809C56.6821 59.7809 55.9971 59.4765 55.5557 58.8676C55.1143 58.2588 54.8962 57.3101 54.8962 56.0163V45.575H58.0418V55.8387C58.0418 56.4627 58.1077 56.9093 58.2447 57.1731C58.3817 57.4369 58.61 57.5739 58.9296 57.5739C59.2036 57.5739 59.4674 57.4926 59.716 57.3253C59.9646 57.1579 60.1523 56.9447 60.2741 56.686V45.5748L63.4197 45.575ZM79.5638 45.575V59.5525H77.1031L76.8291 57.8428H76.7631C76.0935 59.1365 75.0889 59.7809 73.7545 59.7809C72.8262 59.7809 72.1411 59.4765 71.6998 58.8676C71.2584 58.2588 71.0402 57.3101 71.0402 56.0163V45.575H74.1859V55.8387C74.1859 56.4627 74.2518 56.9093 74.3888 57.1731C74.5257 57.4369 74.7541 57.5739 75.0737 57.5739C75.3477 57.5739 75.6115 57.4926 75.8601 57.3253C76.1087 57.1579 76.2964 56.9447 76.4182 56.686V45.5748L79.5638 45.575Z" fill="#282828"/>
<path fill-rule="evenodd" clip-rule="evenodd" d="M71.9738 42.9523H68.8485V59.5529H65.7688V42.9523H62.6436V40.4207H71.9687V42.9523H71.9738ZM89.9798 47.8127C89.7871 46.9299 89.4827 46.2907 89.0565 45.895C88.6304 45.4992 88.0469 45.3013 87.301 45.3013C86.7228 45.3013 86.1849 45.4637 85.6826 45.7935C85.1803 46.1181 84.7947 46.5495 84.5207 47.0822H84.4954V39.7153H81.4614V59.558H84.059L84.3786 58.2339H84.4447C84.6882 58.7057 85.0534 59.0761 85.5405 59.35C86.0275 59.624 86.5655 59.761 87.159 59.761C88.2245 59.761 89.0057 59.2688 89.5081 58.2896C90.0103 57.3105 90.259 55.7783 90.259 53.693V51.4809C90.2641 49.9182 90.1676 48.6955 89.9798 47.8128V47.8127ZM87.093 53.5154C87.093 54.5352 87.0524 55.3317 86.9662 55.9101C86.885 56.4886 86.743 56.8995 86.5451 57.1431C86.3472 57.3865 86.0834 57.5083 85.7485 57.5083C85.4897 57.5083 85.2514 57.4475 85.0281 57.3257C84.81 57.2039 84.6273 57.0213 84.4903 56.7777V48.8377C84.5969 48.4571 84.7795 48.1476 85.0383 47.9042C85.297 47.6606 85.576 47.5388 85.8804 47.5388C86.2001 47.5388 86.4486 47.6656 86.6212 47.9141C86.7937 48.1629 86.9155 48.5889 86.9864 49.1775C87.0525 49.7711 87.0879 50.6133 87.0879 51.7091V53.5154H87.093Z" fill="#282828"/>
</g>
<defs>
<clipPath id="clip0_2181_63685">
<rect width="100" height="100" fill="white"/>
</clipPath>
</defs>
</svg>
