<svg width="60" height="60" viewBox="0 0 60 60" fill="none" xmlns="http://www.w3.org/2000/svg">
<rect width="60" height="60" fill="white"/>
<path opacity="0.2" d="M25 34C28.5899 34 31.5 31.0899 31.5 27.5C31.5 23.9101 28.5899 21 25 21C21.4101 21 18.5 23.9101 18.5 27.5C18.5 31.0899 21.4101 34 25 34Z" fill="#FD8E1F"/>
<path d="M25 34C28.5899 34 31.5 31.0899 31.5 27.5C31.5 23.9101 28.5899 21 25 21C21.4101 21 18.5 23.9101 18.5 27.5C18.5 31.0899 21.4101 34 25 34Z" stroke="#FD8E1F" stroke-width="2" stroke-miterlimit="10"/>
<path d="M33.4266 21.2417C34.3207 20.9898 35.2583 20.9324 36.1764 21.0734C37.0944 21.2144 37.9716 21.5505 38.7489 22.059C39.5261 22.5676 40.1853 23.2368 40.6822 24.0216C41.179 24.8063 41.5019 25.6885 41.6291 26.6086C41.7563 27.5287 41.6848 28.4653 41.4195 29.3555C41.1543 30.2456 40.7013 31.0686 40.0912 31.7689C39.4811 32.4693 38.728 33.0307 37.8826 33.4155C37.0372 33.8003 36.1192 33.9994 35.1903 33.9995" stroke="#FD8E1F" stroke-width="2" stroke-linecap="round" stroke-linejoin="round"/>
<path d="M15.9995 38.6746C17.0147 37.2306 18.3624 36.052 19.9288 35.2384C21.4953 34.4248 23.2345 34.0001 24.9996 34C26.7648 33.9999 28.504 34.4246 30.0705 35.238C31.637 36.0515 32.9848 37.23 34.0001 38.6739" stroke="#FD8E1F" stroke-width="2" stroke-linecap="round" stroke-linejoin="round"/>
<path d="M35.1902 34C36.9555 33.9987 38.6951 34.4228 40.2617 35.2364C41.8284 36.05 43.1759 37.2291 44.1902 38.6739" stroke="#FD8E1F" stroke-width="2" stroke-linecap="round" stroke-linejoin="round"/>
</svg>
