<svg width="192" height="66" viewBox="0 0 192 66" fill="none" xmlns="http://www.w3.org/2000/svg">
<path d="M76.736 31.014C75.224 35.802 74.468 38.7 74.468 39.708C74.468 40.044 74.566 40.324 74.762 40.548C74.986 40.744 75.266 40.842 75.602 40.842C78.822 40.842 82.378 40.324 86.27 39.288C87.53 38.952 88.258 38.784 88.454 38.784C88.874 38.784 89.084 39.078 89.084 39.666C89.084 40.674 87.53 41.71 84.422 42.774C81.342 43.838 78.36 44.37 75.476 44.37C74.188 44.37 73.054 43.992 72.074 43.236C71.122 42.48 70.646 41.528 70.646 40.38C70.646 39.232 71.052 37.272 71.864 34.5C72.704 31.728 73.544 28.774 74.384 25.638C75.224 22.502 75.644 19.856 75.644 17.7C75.644 17.392 75.7 17.07 75.812 16.734C76.288 15.698 79.34 15.18 84.968 15.18C90.596 15.18 93.41 15.586 93.41 16.398C93.41 16.958 92.808 17.336 91.604 17.532C90.596 17.728 89.252 17.91 87.572 18.078C85.92 18.218 84.758 18.33 84.086 18.414C83.414 18.47 81.79 18.722 79.214 19.17V19.296C79.214 21.2 78.696 24.07 77.66 27.906C77.828 27.934 78.388 27.948 79.34 27.948C80.32 27.948 81.622 27.878 83.246 27.738C84.87 27.598 86.088 27.528 86.9 27.528C87.74 27.528 88.16 27.724 88.16 28.116C88.16 29.096 87.012 29.824 84.716 30.3C82.42 30.776 79.76 31.014 76.736 31.014ZM111.846 11.778C112.294 11.778 112.84 12.198 113.484 13.038C114.156 13.85 114.492 14.62 114.492 15.348C114.492 16.076 114.142 18.148 113.442 21.564C112.742 24.952 111.93 28.466 111.006 32.106C108.99 40.282 107.66 44.37 107.016 44.37C106.624 44.37 106.19 44.132 105.714 43.656C105.266 43.152 105.042 42.718 105.042 42.354C105.042 41.99 105.14 41.262 105.336 40.17C102.592 42.97 100.198 44.37 98.1544 44.37C96.9224 44.37 95.8024 43.81 94.7944 42.69C93.8144 41.57 93.3244 40.408 93.3244 39.204C93.3244 37.468 93.7864 35.41 94.7104 33.03C95.6624 30.622 97.0204 28.438 98.7844 26.478C100.548 24.518 102.424 23.538 104.412 23.538C106.4 23.538 107.786 24.728 108.57 27.108C109.998 21.172 110.782 16.482 110.922 13.038C110.922 12.198 111.23 11.778 111.846 11.778ZM107.226 32.4C107.226 30.888 106.96 29.614 106.428 28.578C105.924 27.542 105.308 27.024 104.58 27.024C103.376 27.024 102.144 27.766 100.884 29.25C99.6244 30.734 98.6164 32.442 97.8604 34.374C97.1324 36.278 96.7684 37.93 96.7684 39.33C96.7684 39.834 96.9504 40.24 97.3144 40.548C97.6784 40.856 98.1124 41.01 98.6164 41.01C99.7084 41.01 101.178 40.226 103.026 38.658C104.902 37.09 106.26 35.242 107.1 33.114L107.226 32.61V32.4ZM129.697 24.714C129.809 24.266 129.921 23.958 130.033 23.79C130.145 23.622 130.383 23.538 130.747 23.538C131.139 23.538 131.601 23.902 132.133 24.63C132.693 25.358 132.973 26.058 132.973 26.73C132.973 27.094 132.357 29.25 131.125 33.198C129.893 37.146 128.941 40.282 128.269 42.606C127.933 43.782 127.457 44.37 126.841 44.37C126.477 44.37 126.169 44.216 125.917 43.908C125.665 43.6 125.539 43.04 125.539 42.228C125.539 41.416 125.861 39.946 126.505 37.818C125.329 39.722 124.055 41.29 122.683 42.522C121.311 43.754 120.051 44.37 118.903 44.37C117.783 44.37 116.719 43.838 115.711 42.774C114.703 41.71 114.199 40.618 114.199 39.498C114.199 36.838 114.969 33.52 116.509 29.544C118.077 25.54 119.379 23.538 120.415 23.538C120.919 23.538 121.353 23.776 121.717 24.252C122.109 24.7 122.305 25.218 122.305 25.806C122.305 26.058 121.927 26.968 121.171 28.536C120.415 30.076 119.659 31.896 118.903 33.996C118.147 36.068 117.769 37.888 117.769 39.456C117.769 39.904 117.909 40.282 118.189 40.59C118.469 40.87 118.805 41.01 119.197 41.01C120.261 41.01 121.521 40.072 122.977 38.196C124.461 36.32 125.805 34.136 127.009 31.644C128.213 29.152 129.109 26.842 129.697 24.714ZM141.812 44.37C140.188 44.37 138.662 43.74 137.234 42.48C135.806 41.192 135.092 39.68 135.092 37.944C135.092 36.18 135.68 34.15 136.856 31.854C138.032 29.558 139.544 27.598 141.392 25.974C143.268 24.35 145.088 23.538 146.852 23.538C148 23.538 149.008 24.056 149.876 25.092C150.744 26.128 151.178 27.038 151.178 27.822C151.178 28.046 151.108 28.242 150.968 28.41C150.828 28.55 150.618 28.62 150.338 28.62C150.086 28.62 149.624 28.368 148.952 27.864C148.28 27.36 147.678 27.108 147.146 27.108C145.634 27.108 143.87 28.438 141.854 31.098C139.838 33.758 138.83 36.082 138.83 38.07C138.83 38.938 139.096 39.624 139.628 40.128C140.188 40.632 141.07 40.884 142.274 40.884C143.506 40.884 144.626 40.744 145.634 40.464C146.67 40.156 147.468 39.862 148.028 39.582C148.588 39.274 149.022 39.12 149.33 39.12C149.862 39.12 150.128 39.386 150.128 39.918C150.128 40.73 149.148 41.682 147.188 42.774C145.256 43.838 143.464 44.37 141.812 44.37ZM164.925 23.538C166.185 23.538 167.347 24.182 168.411 25.47C169.475 26.73 170.007 27.878 170.007 28.914C170.007 29.922 169.657 30.958 168.957 32.022C169.293 32.442 169.461 32.806 169.461 33.114C169.461 33.898 169.279 35.242 168.915 37.146C168.579 39.05 168.369 40.296 168.285 40.884C168.229 41.472 168.173 41.948 168.117 42.312C168.061 42.648 167.991 42.984 167.907 43.32C167.795 44.02 167.543 44.37 167.151 44.37C166.647 44.37 166.227 43.936 165.891 43.068C165.583 42.172 165.401 41.024 165.345 39.624C162.853 42.788 160.543 44.37 158.415 44.37C157.127 44.37 155.853 43.824 154.593 42.732C153.361 41.612 152.745 40.464 152.745 39.288C152.745 37.608 153.361 35.536 154.593 33.072C155.825 30.58 157.421 28.368 159.381 26.436C161.341 24.504 163.189 23.538 164.925 23.538ZM166.857 30.93C166.857 28.326 166.339 27.024 165.303 27.024C164.211 27.024 162.937 27.808 161.481 29.376C160.025 30.916 158.793 32.666 157.785 34.626C156.777 36.586 156.273 38.14 156.273 39.288C156.273 39.764 156.469 40.156 156.861 40.464C157.253 40.744 157.715 40.884 158.247 40.884C159.563 40.884 161.047 40.002 162.699 38.238C164.351 36.446 165.499 34.276 166.143 31.728C166.227 31.308 166.465 31.056 166.857 30.972V30.93ZM178.145 40.17C178.145 40.702 178.453 40.968 179.069 40.968C180.133 40.968 181.421 40.674 182.933 40.086C184.473 39.47 185.327 39.162 185.495 39.162C185.999 39.162 186.251 39.428 186.251 39.96C186.251 40.772 185.411 41.71 183.731 42.774C182.079 43.838 180.567 44.37 179.195 44.37C177.851 44.37 176.731 44.006 175.835 43.278C174.939 42.522 174.491 41.752 174.491 40.968C174.491 40.184 174.659 39.19 174.995 37.986C175.331 36.754 175.807 35.144 176.423 33.156C177.067 31.14 177.571 29.474 177.935 28.158C176.619 28.466 175.737 28.62 175.289 28.62C174.841 28.62 174.393 28.396 173.945 27.948C173.525 27.472 173.315 27.024 173.315 26.604C173.315 25.932 175.135 25.288 178.775 24.672C179.279 22.348 179.531 20.29 179.531 18.498C179.531 17.658 179.811 17.238 180.371 17.238C180.847 17.238 181.435 17.546 182.135 18.162C182.835 18.75 183.185 19.422 183.185 20.178C183.185 20.934 182.947 22.264 182.471 24.168C184.067 24.028 185.341 23.958 186.293 23.958C187.973 23.958 188.813 24.322 188.813 25.05C188.813 25.47 188.351 25.82 187.427 26.1C186.531 26.38 184.627 26.814 181.715 27.402C181.127 29.614 180.385 32.148 179.489 35.004C178.593 37.832 178.145 39.554 178.145 40.17Z" fill="white"/>
<path d="M33.2006 1.00274L62.853 19.4818L59.7015 21.4873V34.8094H55.2608V24.3522L45.3767 30.5119C46.5227 31.0849 47.3822 31.8011 48.2416 32.5174C50.3904 34.3796 51.6796 36.8148 51.6796 39.2501C51.6796 42.9745 49.1011 46.126 45.0902 48.2747C41.6522 50.1369 36.9251 51.2829 31.6249 51.2829C26.4679 51.2829 21.7408 50.1369 18.3028 48.2747C14.2919 46.126 11.7134 42.9745 11.7134 39.2501C11.7134 36.8148 12.8594 34.5229 14.8648 32.6606C15.7243 31.8011 16.8703 31.0849 18.0163 30.5119L0.540039 19.4818L31.6249 0L33.2006 1.00274ZM39.5035 34.0931L31.6249 38.9636L23.8895 34.0931C21.7408 34.8094 19.8785 35.8121 18.7325 36.8148C17.8731 37.6743 17.4433 38.5338 17.4433 39.2501C17.4433 40.6826 18.7325 42.115 20.8813 43.261C23.603 44.6935 27.4707 45.6962 31.6249 45.6962C35.9223 45.6962 39.79 44.6935 42.3685 43.261C44.5172 42.115 45.9497 40.6826 45.9497 39.2501C45.9497 38.3906 45.3767 37.5311 44.5172 36.6716C43.3712 35.6689 41.6522 34.8094 39.5035 34.0931ZM43.0847 13.8951L31.6249 6.73268L11.2836 19.4818L31.6249 32.3741L52.1093 19.4818L43.0847 13.8951Z" fill="#FF6636"/>
</svg>
