<svg width="150" height="40" viewBox="0 0 150 40" fill="none" xmlns="http://www.w3.org/2000/svg">
<path d="M45.408 19.342C44.472 22.306 44.004 24.1 44.004 24.724C44.004 24.932 44.0647 25.1053 44.186 25.244C44.3247 25.3653 44.498 25.426 44.706 25.426C46.6993 25.426 48.9007 25.1053 51.31 24.464C52.09 24.256 52.5407 24.152 52.662 24.152C52.922 24.152 53.052 24.334 53.052 24.698C53.052 25.322 52.09 25.9633 50.166 26.622C48.2593 27.2807 46.4133 27.61 44.628 27.61C43.8307 27.61 43.1287 27.376 42.522 26.908C41.9327 26.44 41.638 25.8507 41.638 25.14C41.638 24.4293 41.8893 23.216 42.392 21.5C42.912 19.784 43.432 17.9553 43.952 16.014C44.472 14.0727 44.732 12.4347 44.732 11.1C44.732 10.9093 44.7667 10.71 44.836 10.502C45.1307 9.86067 47.02 9.54 50.504 9.54C53.988 9.54 55.73 9.79133 55.73 10.294C55.73 10.6407 55.3573 10.8747 54.612 10.996C53.988 11.1173 53.156 11.23 52.116 11.334C51.0933 11.4207 50.374 11.49 49.958 11.542C49.542 11.5767 48.5367 11.7327 46.942 12.01V12.088C46.942 13.2667 46.6213 15.0433 45.98 17.418C46.084 17.4353 46.4307 17.444 47.02 17.444C47.6267 17.444 48.4327 17.4007 49.438 17.314C50.4433 17.2273 51.1973 17.184 51.7 17.184C52.22 17.184 52.48 17.3053 52.48 17.548C52.48 18.1547 51.7693 18.6053 50.348 18.9C48.9267 19.1947 47.28 19.342 45.408 19.342ZM67.143 7.434C67.4203 7.434 67.7583 7.694 68.157 8.214C68.573 8.71667 68.781 9.19333 68.781 9.644C68.781 10.0947 68.5643 11.3773 68.131 13.492C67.6977 15.5893 67.195 17.7647 66.623 20.018C65.375 25.0793 64.5517 27.61 64.153 27.61C63.9103 27.61 63.6417 27.4627 63.347 27.168C63.0697 26.856 62.931 26.5873 62.931 26.362C62.931 26.1367 62.9917 25.686 63.113 25.01C61.4143 26.7433 59.9323 27.61 58.667 27.61C57.9043 27.61 57.211 27.2633 56.587 26.57C55.9803 25.8767 55.677 25.1573 55.677 24.412C55.677 23.3373 55.963 22.0633 56.535 20.59C57.1243 19.0993 57.965 17.7473 59.057 16.534C60.149 15.3207 61.3103 14.714 62.541 14.714C63.7717 14.714 64.6297 15.4507 65.115 16.924C65.999 13.2493 66.4843 10.346 66.571 8.214C66.571 7.694 66.7617 7.434 67.143 7.434ZM64.283 20.2C64.283 19.264 64.1183 18.4753 63.789 17.834C63.477 17.1927 63.0957 16.872 62.645 16.872C61.8997 16.872 61.137 17.3313 60.357 18.25C59.577 19.1687 58.953 20.226 58.485 21.422C58.0343 22.6007 57.809 23.6233 57.809 24.49C57.809 24.802 57.9217 25.0533 58.147 25.244C58.3723 25.4347 58.641 25.53 58.953 25.53C59.629 25.53 60.539 25.0447 61.683 24.074C62.8443 23.1033 63.685 21.9593 64.205 20.642L64.283 20.33V20.2ZM78.1936 15.442C78.2629 15.1647 78.3323 14.974 78.4016 14.87C78.4709 14.766 78.6183 14.714 78.8436 14.714C79.0863 14.714 79.3723 14.9393 79.7016 15.39C80.0483 15.8407 80.2216 16.274 80.2216 16.69C80.2216 16.9153 79.8403 18.25 79.0776 20.694C78.3149 23.138 77.7256 25.0793 77.3096 26.518C77.1016 27.246 76.8069 27.61 76.4256 27.61C76.2003 27.61 76.0096 27.5147 75.8536 27.324C75.6976 27.1333 75.6196 26.7867 75.6196 26.284C75.6196 25.7813 75.8189 24.8713 76.2176 23.554C75.4896 24.7327 74.7009 25.7033 73.8516 26.466C73.0023 27.2287 72.2223 27.61 71.5116 27.61C70.8183 27.61 70.1596 27.2807 69.5356 26.622C68.9116 25.9633 68.5996 25.2873 68.5996 24.594C68.5996 22.9473 69.0763 20.8933 70.0296 18.432C71.0003 15.9533 71.8063 14.714 72.4476 14.714C72.7596 14.714 73.0283 14.8613 73.2536 15.156C73.4963 15.4333 73.6176 15.754 73.6176 16.118C73.6176 16.274 73.3836 16.8373 72.9156 17.808C72.4476 18.7613 71.9796 19.888 71.5116 21.188C71.0436 22.4707 70.8096 23.5973 70.8096 24.568C70.8096 24.8453 70.8963 25.0793 71.0696 25.27C71.2429 25.4433 71.4509 25.53 71.6936 25.53C72.3523 25.53 73.1323 24.9493 74.0336 23.788C74.9523 22.6267 75.7843 21.2747 76.5296 19.732C77.2749 18.1893 77.8296 16.7593 78.1936 15.442ZM85.6932 27.61C84.6878 27.61 83.7432 27.22 82.8592 26.44C81.9752 25.6427 81.5332 24.7067 81.5332 23.632C81.5332 22.54 81.8972 21.2833 82.6252 19.862C83.3532 18.4407 84.2892 17.2273 85.4332 16.222C86.5945 15.2167 87.7212 14.714 88.8132 14.714C89.5238 14.714 90.1478 15.0347 90.6852 15.676C91.2225 16.3173 91.4912 16.8807 91.4912 17.366C91.4912 17.5047 91.4478 17.626 91.3612 17.73C91.2745 17.8167 91.1445 17.86 90.9712 17.86C90.8152 17.86 90.5292 17.704 90.1132 17.392C89.6972 17.08 89.3245 16.924 88.9952 16.924C88.0592 16.924 86.9672 17.7473 85.7192 19.394C84.4712 21.0407 83.8472 22.4793 83.8472 23.71C83.8472 24.2473 84.0118 24.672 84.3412 24.984C84.6878 25.296 85.2338 25.452 85.9792 25.452C86.7418 25.452 87.4352 25.3653 88.0592 25.192C88.7005 25.0013 89.1945 24.8193 89.5412 24.646C89.8878 24.4553 90.1565 24.36 90.3472 24.36C90.6765 24.36 90.8412 24.5247 90.8412 24.854C90.8412 25.3567 90.2345 25.946 89.0212 26.622C87.8252 27.2807 86.7158 27.61 85.6932 27.61ZM100.001 14.714C100.781 14.714 101.501 15.1127 102.159 15.91C102.818 16.69 103.147 17.4007 103.147 18.042C103.147 18.666 102.931 19.3073 102.497 19.966C102.705 20.226 102.809 20.4513 102.809 20.642C102.809 21.1273 102.697 21.9593 102.471 23.138C102.263 24.3167 102.133 25.088 102.081 25.452C102.047 25.816 102.012 26.1107 101.977 26.336C101.943 26.544 101.899 26.752 101.847 26.96C101.778 27.3933 101.622 27.61 101.379 27.61C101.067 27.61 100.807 27.3413 100.599 26.804C100.409 26.2493 100.296 25.5387 100.261 24.672C98.7186 26.6307 97.2886 27.61 95.9713 27.61C95.174 27.61 94.3853 27.272 93.6053 26.596C92.8426 25.9027 92.4613 25.192 92.4613 24.464C92.4613 23.424 92.8426 22.1413 93.6053 20.616C94.368 19.0733 95.356 17.704 96.5693 16.508C97.7826 15.312 98.9266 14.714 100.001 14.714ZM101.197 19.29C101.197 17.678 100.877 16.872 100.235 16.872C99.5593 16.872 98.7706 17.3573 97.8693 18.328C96.968 19.2813 96.2053 20.3647 95.5813 21.578C94.9573 22.7913 94.6453 23.7533 94.6453 24.464C94.6453 24.7587 94.7666 25.0013 95.0093 25.192C95.252 25.3653 95.538 25.452 95.8673 25.452C96.682 25.452 97.6006 24.906 98.6233 23.814C99.646 22.7047 100.357 21.3613 100.755 19.784C100.807 19.524 100.955 19.368 101.197 19.316V19.29ZM108.185 25.01C108.185 25.3393 108.375 25.504 108.757 25.504C109.415 25.504 110.213 25.322 111.149 24.958C112.102 24.5767 112.631 24.386 112.735 24.386C113.047 24.386 113.203 24.5507 113.203 24.88C113.203 25.3827 112.683 25.9633 111.643 26.622C110.62 27.2807 109.684 27.61 108.835 27.61C108.003 27.61 107.309 27.3847 106.755 26.934C106.2 26.466 105.923 25.9893 105.923 25.504C105.923 25.0187 106.027 24.4033 106.235 23.658C106.443 22.8953 106.737 21.8987 107.119 20.668C107.517 19.42 107.829 18.3887 108.055 17.574C107.24 17.7647 106.694 17.86 106.417 17.86C106.139 17.86 105.862 17.7213 105.585 17.444C105.325 17.1493 105.195 16.872 105.195 16.612C105.195 16.196 106.321 15.7973 108.575 15.416C108.887 13.9773 109.043 12.7033 109.043 11.594C109.043 11.074 109.216 10.814 109.563 10.814C109.857 10.814 110.221 11.0047 110.655 11.386C111.088 11.75 111.305 12.166 111.305 12.634C111.305 13.102 111.157 13.9253 110.863 15.104C111.851 15.0173 112.639 14.974 113.229 14.974C114.269 14.974 114.789 15.1993 114.789 15.65C114.789 15.91 114.503 16.1267 113.931 16.3C113.376 16.4733 112.197 16.742 110.395 17.106C110.031 18.4753 109.571 20.044 109.017 21.812C108.462 23.5627 108.185 24.6287 108.185 25.01Z" fill="black"/>
<path d="M19.2698 4.59162L36.7647 15.4943L34.9053 16.6775V24.5375H32.2853V18.3678L26.4537 22.002C27.1298 22.3401 27.6369 22.7627 28.144 23.1853C29.4118 24.284 30.1724 25.7208 30.1724 27.1575C30.1724 29.355 28.6511 31.2143 26.2847 32.4821C24.2563 33.5808 21.4672 34.2569 18.3401 34.2569C15.2975 34.2569 12.5085 33.5808 10.4801 32.4821C8.11359 31.2143 6.59229 29.355 6.59229 27.1575C6.59229 25.7208 7.26842 24.3685 8.45166 23.2698C8.95876 22.7627 9.63489 22.3401 10.311 22.002L0 15.4943L18.3401 4L19.2698 4.59162ZM22.9885 24.1149L18.3401 26.9885L13.7762 24.1149C12.5085 24.5375 11.4097 25.1291 10.7336 25.7208C10.2265 26.2279 9.97295 26.735 9.97295 27.1575C9.97295 28.0027 10.7336 28.8479 12.0014 29.524C13.6072 30.3692 15.8891 30.9608 18.3401 30.9608C20.8756 30.9608 23.1575 30.3692 24.6788 29.524C25.9466 28.8479 26.7918 28.0027 26.7918 27.1575C26.7918 26.6504 26.4537 26.1433 25.9466 25.6362C25.2705 25.0446 24.2563 24.5375 22.9885 24.1149ZM25.1014 12.1981L18.3401 7.97228L6.33874 15.4943L18.3401 23.1007L30.426 15.4943L25.1014 12.1981Z" fill="#FF6636"/>
</svg>
